#!OML:ASF H:\Terrain\Walking\May29\JustinRory\Justin.ASF
:FULLY-SPECIFIED
:DEGREES
1201
root 7.06406 12.2503 -18.1215 10.3419 5.88687 0.0131243
lowerback 38.0872 -0.932224 0.91102
upperback 6.70506 -0.0710868 4.79631
thorax -11.3395 -0.0374977 4.73258
lowerneck -14.1425 -6.83801 -11.7351
upperneck 7.07829 -8.19891 11.0925
head 5.39117 -3.66094 4.63777
rclavicle -1.98785e-014 3.02153e-014
rhumerus -12.9151 -15.7753 -46.5558
rradius 96.5192
rwrist -31.7437
rhand -25.4603 41.8769
rfingers 7.12502
rthumb 1.06701 11.8999
lclavicle -1.98785e-014 3.02153e-014
lhumerus 0.138548 14.6427 52.4394
lradius 92.9894
lwrist 20.0463
lhand -15.214 29.7214
lfingers 7.12502
lthumb 10.9583 59.4154
rfemur -75.131 -22.5803 26.5719
rtibia 108.108
rfoot -33.5703 -2.78834
rtoes -19.3496
lfemur -72.438 11.2186 -18.492
ltibia 102.491
lfoot -38.3527 -1.00264
ltoes -15.5366
1202
root 7.15185 12.2423 -18.1365 10.5354 4.17101 0.614604
lowerback 38.4187 -0.680195 1.19377
upperback 6.55041 0.225569 3.89319
thorax -11.6245 0.0841907 3.48318
lowerneck -14.0297 -6.79263 -11.4898
upperneck 7.0738 -8.16624 10.8475
head 5.34534 -3.65676 4.52546
rclavicle 2.06736e-014 -1.59028e-014
rhumerus -11.6746 -16.0701 -45.998
rradius 95.4323
rwrist -32.1884
rhand -25.4073 41.6017
rfingers 7.12502
rthumb 1.11823 11.6249
lclavicle 2.06736e-014 -1.59028e-014
lhumerus -2.27646 14.5391 52.5451
lradius 94.1233
lwrist 20.1878
lhand -15.225 29.5336
lfingers 7.12502
lthumb 10.9477 59.2281
rfemur -75.5155 -21.7379 25.5305
rtibia 107.994
rfoot -33.2783 -2.27299
rtoes -20.2409
lfemur -72.4486 11.7239 -19.5777
ltibia 102.664
lfoot -38.3162 0.14313
ltoes -15.7164
1203
root 7.23703 12.2505 -18.1486 10.7235 2.6954 1.5041
lowerback 38.6232 -0.515181 1.16627
upperback 6.59498 0.298397 3.09819
thorax -11.6293 0.112482 2.60566
lowerneck -14.726 -6.73272 -11.4925
upperneck 7.39748 -7.99815 10.5567
head 5.52678 -3.57103 4.43552
rclavicle 9.54166e-015 2.54444e-014
rhumerus -9.72277 -16.3316 -45.2738
rradius 94.1172
rwrist -33.1035
rhand -25.2488 41.0697
rfingers 7.12502
rthumb 1.27129 11.0938
lclavicle 9.54166e-015 2.54444e-014
lhumerus -4.51198 14.7794 52.7805
lradius 95.2268
lwrist 20.3797
lhand -15.3998 29.5856
lfingers 7.12502
lthumb 10.7792 59.289
rfemur -75.824 -21.1546 24.1075
rtibia 107.851
rfoot -33.0959 -1.34253
rtoes -19.5092
lfemur -72.3183 11.7942 -20.9171
ltibia 102.681
lfoot -38.218 1.47118
ltoes -16.4338
1204
root 7.3179 12.273 -18.1583 10.7829 1.26382 2.16907
lowerback 38.8417 -0.366533 1.21645
upperback 6.70182 0.395441 2.41481
thorax -11.5707 0.149693 1.7992
lowerneck -15.1385 -6.54107 -11.25
upperneck 7.3442 -7.6598 9.90113
head 5.49931 -3.43102 4.21501
rclavicle -1.11319e-014 2.06736e-014
rhumerus -7.74393 -16.6059 -44.4435
rradius 92.5857
rwrist -33.888
rhand -25.3142 41.0961
rfingers 7.12502
rthumb 1.2081 11.1197
lclavicle -1.11319e-014 2.06736e-014
lhumerus -6.89059 15.2824 53.2261
lradius 96.4213
lwrist 20.6167
lhand -15.7075 29.5115
lfingers 7.12502
lthumb 10.4823 59.2302
rfemur -75.9985 -20.5363 22.9222
rtibia 107.625
rfoot -33.0168 -0.531012
rtoes -18.8688
lfemur -72.0276 11.9681 -21.9654
ltibia 102.627
lfoot -38.1475 2.65678
ltoes -17.4394
1205
root 7.39698 12.2814 -18.1652 10.7417 -0.361983 2.7744
lowerback 39.133 -0.139748 1.28895
upperback 6.83803 0.577465 1.59889
thorax -11.5012 0.224872 0.803507
lowerneck -15.1695 -6.32919 -10.7572
upperneck 6.86592 -7.38078 9.38952
head 5.28389 -3.31567 4.00343
rclavicle 6.36111e-015 3.18055e-015
rhumerus -5.91185 -16.9051 -43.8618
rradius 91.1054
rwrist -34.6348
rhand -25.8289 41.3591
rfingers 7.12502
rthumb 0.711038 11.3805
lclavicle 6.36111e-015 3.18055e-015
lhumerus -9.20951 15.8631 53.6445
lradius 97.5632
lwrist 20.7762
lhand -15.6377 29.8696
lfingers 7.12502
lthumb 10.5497 59.5849
rfemur -76.2762 -19.9612 21.9148
rtibia 107.399
rfoot -32.9112 0.188207
rtoes -19.0251
lfemur -71.6896 12.3641 -22.933
ltibia 102.588
lfoot -38.1021 3.80986
ltoes -18.6313
1206
root 7.478 12.2975 -18.1648 10.6644 -1.93977 3.56374
lowerback 39.6299 0.0387734 1.3054
upperback 6.8598 0.671954 0.699547
thorax -11.6296 0.263107 -0.215657
lowerneck -15.5087 -6.19119 -10.4865
upperneck 6.82083 -7.18879 9.17738
head 5.28617 -3.21983 3.90689
rclavicle -1.19271e-014 3.97569e-015
rhumerus -4.06213 -17.1812 -43.307
rradius 89.5742
rwrist -35.3957
rhand -25.8362 41.3511
rfingers 7.12502
rthumb 0.703912 11.3725
lclavicle -1.19271e-014 3.97569e-015
lhumerus -11.5731 16.2469 53.9153
lradius 98.6175
lwrist 20.7607
lhand -15.5549 30.543
lfingers 7.12502
lthumb 10.6296 60.2542
rfemur -76.3604 -19.4444 20.6624
rtibia 107.042
rfoot -32.7957 0.790669
rtoes -19.7049
lfemur -71.1079 12.6085 -24.0668
ltibia 102.399
lfoot -38.1394 4.86935
ltoes -19.45
1207
root 7.55589 12.3291 -18.1692 10.8232 -3.39773 3.8852
lowerback 39.944 0.111074 1.69349
upperback 6.81527 0.803657 -0.0441428
thorax -11.7678 0.306091 -1.27934
lowerneck -15.9016 -6.05983 -10.3381
upperneck 6.86036 -6.99496 9.07956
head 5.33331 -3.11753 3.86579
rclavicle 1.90833e-014 7.95139e-016
rhumerus -2.20634 -17.545 -42.6594
rradius 87.8704
rwrist -35.7511
rhand -25.8081 41.5615
rfingers 7.12502
rthumb 0.731093 11.583
lclavicle 1.90833e-014 7.95139e-016
lhumerus -13.9035 16.6296 54.0796
lradius 99.4838
lwrist 20.7568
lhand -15.7958 30.7301
lfingers 7.12502
lthumb 10.3971 60.4531
rfemur -76.4856 -18.2782 19.8566
rtibia 106.529
rfoot -32.6077 0.885104
rtoes -20.048
lfemur -70.9443 12.9508 -24.6962
ltibia 102.127
lfoot -38.1336 4.93833
ltoes -17.4444
1208
root 7.64029 12.3574 -18.1697 10.9836 -5.05808 3.94605
lowerback 40.0983 0.278592 2.23512
upperback 6.93783 1.12479 -0.665663
thorax -11.6488 0.432286 -2.37146
lowerneck -16.1852 -5.9555 -10.427
upperneck 6.61471 -6.791 9.05102
head 5.28364 -3.01621 3.88901
rclavicle 3.97569e-015 -7.95139e-016
rhumerus -0.34664 -18.0067 -41.76
rradius 86.139
rwrist -35.9523
rhand -26.4457 41.5303
rfingers 7.12502
rthumb 0.115307 11.5506
lclavicle 3.97569e-015 -7.95139e-016
lhumerus -15.9574 17.1399 54.4461
lradius 100.28
lwrist 20.7974
lhand -15.8335 30.9817
lfingers 7.12502
lthumb 10.3608 60.7064
rfemur -76.7241 -16.9756 19.3441
rtibia 106.035
rfoot -32.4516 1.21577
rtoes -19.0127
lfemur -71.0026 13.4749 -24.9758
ltibia 101.958
lfoot -38.245 3.89057
ltoes -11.7668
1209
root 7.73567 12.3977 -18.1486 10.7986 -7.0844 4.53113
lowerback 40.4979 0.737662 2.2685
upperback 7.11763 1.59208 -1.32675
thorax -11.5377 0.640036 -3.30624
lowerneck -16.1625 -5.87621 -10.6721
upperneck 6.11169 -6.5765 8.78022
head 5.09803 -2.93728 3.86634
rclavicle -1.90833e-014 7.95139e-015
rhumerus 1.33207 -18.6065 -40.5891
rradius 84.4829
rwrist -35.9862
rhand -26.6438 40.6665
rfingers 7.12502
rthumb -0.076103 10.6868
lclavicle -1.90833e-014 7.95139e-015
lhumerus -18.0005 17.4594 55.3235
lradius 101.148
lwrist 20.6099
lhand -15.9618 31.3806
lfingers 7.12502
lthumb 10.237 61.1115
rfemur -76.5153 -15.9571 18.1541
rtibia 105.455
rfoot -32.5728 1.79901
rtoes -18.894
lfemur -70.4662 14.0975 -25.8219
ltibia 101.771
lfoot -38.4713 3.28591
ltoes -7.61373
1210
root 7.80293 12.4041 -18.1718 11.0454 -8.3433 5.4915
lowerback 40.7502 1.03743 1.95679
upperback 7.02114 1.74332 -1.89071
thorax -11.7198 0.710041 -3.8284
lowerneck -16.2511 -5.7173 -10.888
upperneck 5.9441 -6.26222 8.45218
head 5.02247 -2.80784 3.82827
rclavicle -2.38542e-015 8.74653e-015
rhumerus 2.99892 -19.1174 -39.5067
rradius 82.7956
rwrist -36.1913
rhand -26.3172 40.0786
rfingers 7.12502
rthumb 0.239349 10.099
lclavicle -2.38542e-015 8.74653e-015
lhumerus -20.1357 17.7753 56.199
lradius 101.735
lwrist 20.4634
lhand -16.1915 31.3602
lfingers 7.12502
lthumb 10.0154 61.1019
rfemur -77.2753 -15.4986 17.017
rtibia 105.084
rfoot -32.4103 2.04789
rtoes -19.5804
lfemur -70.9229 14.0612 -27.1616
ltibia 101.689
lfoot -38.0806 4.33095
ltoes -9.80184
1211
root 7.86659 12.398 -18.1937 11.4683 -9.55973 5.9514
lowerback 40.7036 1.22508 1.95531
upperback 7.02474 1.89453 -2.3473
thorax -11.6821 0.776526 -4.38907
lowerneck -17.2621 -5.60838 -11.477
upperneck 6.61167 -5.9161 8.54188
head 5.3786 -2.62643 3.97261
rclavicle -6.75868e-014 3.57812e-014
rhumerus 5.0934 -19.5964 -38.6118
rradius 80.8688
rwrist -36.6662
rhand -25.9241 40.1638
rfingers 7.12502
rthumb 0.619055 10.1849
lclavicle -6.75868e-014 3.57812e-014
lhumerus -22.0572 18.3849 56.87
lradius 102.12
lwrist 20.7612
lhand -16.2849 30.9981
lfingers 7.12502
lthumb 9.92527 60.7441
rfemur -78.209 -14.8378 16.4645
rtibia 104.716
rfoot -32.1779 2.53845
rtoes -17.7202
lfemur -71.62 14.2472 -28.0937
ltibia 101.695
lfoot -37.8486 6.86373
ltoes -16.3344
1212
root 7.93802 12.4112 -18.1916 11.7051 -10.6864 6.19266
lowerback 40.672 1.22198 2.30371
upperback 7.11536 1.95285 -2.83009
thorax -11.546 0.796726 -5.11949
lowerneck -17.0074 -5.60046 -10.96
upperneck 5.89571 -5.94105 7.86704
head 5.07554 -2.67421 3.67466
rclavicle 1.82882e-014 4.77083e-015
rhumerus 7.31117 -20.1718 -38.003
rradius 78.7823
rwrist -36.427
rhand -25.4941 40.0701
rfingers 7.12502
rthumb 1.03436 10.0928
lclavicle 1.82882e-014 4.77083e-015
lhumerus -24.0181 19.041 57.4581
lradius 102.564
lwrist 21.1904
lhand -16.481 30.5601
lfingers 7.12502
lthumb 9.73615 60.315
rfemur -78.4861 -14.3566 16.0276
rtibia 104.252
rfoot -32.5051 3.19146
rtoes -14.7237
lfemur -71.7027 14.3369 -28.6421
ltibia 101.555
lfoot -37.9603 9.95324
ltoes -23.4898
